# Apple ModelIO OBJ File: container
mtllib container.mtl
g Cube_Cube.001_None
v -5 -6.62227 14.7071
v -5 6.62227 14.7071
v -5 6.62227 -14.7071
v -5 -6.62227 -14.7071
v 5 6.62227 -14.7071
v 5 -6.62227 -14.7071
v 5 6.62227 14.7071
v 5 -6.62227 14.7071
vn -1 0 0
vn 0 0 -1
vn 1 0 0
vn 0 0 1
vn 0 -1 0
vn 0 1 0
vt 0.75 0.25
vt 1 0.25
vt 1 0.5
vt 0.75 0.5
vt 0.75 0.75
vt 0.5 0.75
vt 0.5 0.5
vt 0.25 0.5
vt 0.25 0.25
vt 0.5 0.25
vt 0.5 0
vt 0.75 0
vt 0 0.5
vt 0 0.25
usemtl None
f 1/1/1 2/2/1 3/3/1
f 1/1/1 3/3/1 4/4/1
f 4/4/2 3/5/2 5/6/2
f 4/4/2 5/6/2 6/7/2
f 6/7/3 5/8/3 7/9/3
f 6/7/3 7/9/3 8/10/3
f 8/10/4 7/11/4 2/12/4
f 8/10/4 2/12/4 1/1/4
f 4/4/5 6/7/5 8/10/5
f 4/4/5 8/10/5 1/1/5
f 5/8/6 3/13/6 2/14/6
f 5/8/6 2/14/6 7/9/6
s off
