# Apple ModelIO OBJ File: WoodPallet
mtllib WoodPallet.mtl
g Cube_Material
v 4.77374 0.065417 1.33051
v -4.77374 0.065417 1.33051
v -4.77374 0.065417 2.20533
v 4.77374 0.065417 2.20533
v 4.77374 -0.065417 2.20533
v -4.77374 -0.065417 2.20533
v 4.77374 -0.065417 1.33051
vn 0 1 0
vn 0 0 1
vn 1 0 0
vt 0.2 0.1
vt 0.3 0.1
vt 0.3 0.2
vt 0.2 0.2
vt 0.2 0.3
vt 0.1 0.3
vt 0.1 0.2
vt 0.4 0
vt 0.4 0.1
vt 0.3 0
usemtl Material
f 1/1/1 2/2/1 3/3/1
f 1/1/1 3/3/1 4/4/1
f 5/4/2 4/5/2 3/6/2
f 5/4/2 3/6/2 6/7/2
f 7/8/3 1/9/3 4/2/3
f 7/8/3 4/2/3 5/10/3
s off
g Cube_Material.001
v -4.77374 -0.065417 2.20533
v -4.77374 0.065417 2.20533
v -4.77374 0.065417 1.33051
v -4.77374 -0.065417 1.33051
v 4.77374 -0.065417 1.33051
v 4.77374 -0.065417 2.20533
v 4.77374 0.065417 1.33051
vn -1 0 0
vn 0 -1 0
vn 0 0 -1
vt 0.3 0.2
vt 0.3 0.3
vt 0.2 0.3
vt 0.2 0.2
vt 0 0.3
vt 0.1 0.3
vt 0.1 0.4
vt 0 0.4
vt 0.2 0.4
usemtl Material.001
f 8/11/4 9/12/4 10/13/4
f 8/11/4 10/13/4 11/14/4
f 11/15/5 12/16/5 13/17/5
f 11/15/5 13/17/5 8/18/5
f 11/13/6 10/19/6 14/17/6
f 11/13/6 14/17/6 12/16/6
s off
g Cube.001_Cube.002_Material
v 4.77374 0.065417 0.005928
v -4.77374 0.065417 0.005928
v -4.77374 0.065417 0.880747
v 4.77374 0.065417 0.880747
v 4.77374 -0.065417 0.880747
v -4.77374 -0.065417 0.880747
v -4.77374 -0.065417 0.005928
v 4.77374 -0.065417 0.005928
vn 0 1 0
vn 0 0 1
vn -1 0 0
vn 0 -1 0
vn 1 0 0
vn 0 0 -1
vt 0.3 0.1
vt 0.4 0.1
vt 0.4 0.2
vt 0.3 0.2
vt 0.3 0.3
vt 0.3 0.4
vt 0.2 0.4
vt 0.2 0.3
vt 0.4 0.3
vt 0.4 0.4
vt 0.1 0.4
vt 0.1 0.5
vt 0 0.5
vt 0 0.4
vt 0.5 0
vt 0.5 0.1
vt 0.4 0
usemtl Material
f 15/20/7 16/21/7 17/22/7
f 15/20/7 17/22/7 18/23/7
f 19/24/8 18/25/8 17/26/8
f 19/24/8 17/26/8 20/27/8
f 20/22/9 17/28/9 16/24/9
f 20/22/9 16/24/9 21/23/9
f 21/24/10 22/28/10 19/29/10
f 21/24/10 19/29/10 20/25/10
f 22/30/11 15/31/11 18/32/11
f 22/30/11 18/32/11 19/33/11
f 21/34/12 16/35/12 15/21/12
f 21/34/12 15/21/12 22/36/12
s off
g Cube.002_Cube.003_Material
v 4.77374 0.065417 -1.31282
v -4.77374 0.065417 -1.31282
v -4.77374 0.065417 -0.437998
v 4.77374 0.065417 -0.437998
v 4.77374 -0.065417 -0.437998
v -4.77374 -0.065417 -0.437998
v -4.77374 -0.065417 -1.31282
v 4.77374 -0.065417 -1.31282
vn 0 1 0
vn 0 0 1
vn -1 0 0
vn 0 -1 0
vn 1 0 0
vn 0 0 -1
vt 0.4 0.1
vt 0.5 0.1
vt 0.5 0.2
vt 0.4 0.2
vt 0.2 0.4
vt 0.2 0.5
vt 0.1 0.5
vt 0.1 0.4
vt 0.3 0.4
vt 0.3 0.5
vt 0.5 0.3
vt 0.4 0.3
vt 0.5 0.4
vt 0.4 0.4
vt 0.4 0.5
usemtl Material
f 23/37/13 24/38/13 25/39/13
f 23/37/13 25/39/13 26/40/13
f 27/41/14 26/42/14 25/43/14
f 27/41/14 25/43/14 28/44/14
f 28/45/15 25/46/15 24/42/15
f 28/45/15 24/42/15 29/41/15
f 29/40/16 30/39/16 27/47/16
f 29/40/16 27/47/16 28/48/16
f 30/47/17 23/49/17 26/50/17
f 30/47/17 26/50/17 27/48/17
f 29/50/18 24/51/18 23/46/18
f 29/50/18 23/46/18 30/45/18
s off
g Cube.003_Cube.004_Material
v 4.77374 0.065417 -2.64635
v -4.77374 0.065417 -2.64635
v -4.77374 0.065417 -1.77153
v 4.77374 0.065417 -1.77153
v 4.77374 -0.065417 -1.77153
v -4.77374 -0.065417 -1.77153
v -4.77374 -0.065417 -2.64635
v 4.77374 -0.065417 -2.64635
vn 0 1 0
vn 0 0 1
vn -1 0 0
vn 0 -1 0
vn 1 0 0
vn 0 0 -1
vt 0.4 0.4
vt 0.5 0.4
vt 0.5 0.5
vt 0.4 0.5
vt 0.6 0
vt 0.6 0.1
vt 0.5 0.1
vt 0.5 0
vt 0.1 0.5
vt 0.1 0.6
vt 0 0.6
vt 0 0.5
vt 0.6 0.2
vt 0.5 0.2
vt 0.2 0.5
vt 0.2 0.6
vt 0.3 0.5
vt 0.3 0.6
usemtl Material
f 31/52/19 32/53/19 33/54/19
f 31/52/19 33/54/19 34/55/19
f 35/56/20 34/57/20 33/58/20
f 35/56/20 33/58/20 36/59/20
f 36/60/21 33/61/21 32/62/21
f 36/60/21 32/62/21 37/63/21
f 37/58/22 38/57/22 35/64/22
f 37/58/22 35/64/22 36/65/22
f 38/66/23 31/67/23 34/61/23
f 38/66/23 34/61/23 35/60/23
f 37/68/24 32/69/24 31/67/24
f 37/68/24 31/67/24 38/66/24
s off
g Cube.004_Cube.005_Material
v 4.77374 0.065417 -3.98632
v -4.77374 0.065417 -3.98632
v -4.77374 0.065417 -3.1115
v 4.77374 0.065417 -3.1115
v 4.77374 -0.065417 -3.1115
v -4.77374 -0.065417 -3.1115
v -4.77374 -0.065417 -3.98632
v 4.77374 -0.065417 -3.98632
vn 0 1 0
vn 0 0 1
vn -1 0 0
vn 0 -1 0
vn 1 0 0
vn 0 0 -1
vt 0.5 0.2
vt 0.6 0.2
vt 0.6 0.3
vt 0.5 0.3
vt 0.4 0.5
vt 0.4 0.6
vt 0.3 0.6
vt 0.3 0.5
vt 0.6 0.4
vt 0.5 0.4
vt 0.5 0.5
vt 0.5 0.6
vt 0.6 0.5
vt 0.6 0.6
usemtl Material
f 39/70/25 40/71/25 41/72/25
f 39/70/25 41/72/25 42/73/25
f 43/74/26 42/75/26 41/76/26
f 43/74/26 41/76/26 44/77/26
f 44/72/27 41/78/27 40/79/27
f 44/72/27 40/79/27 45/73/27
f 45/74/28 46/80/28 43/81/28
f 45/74/28 43/81/28 44/75/28
f 46/78/29 39/82/29 42/80/29
f 46/78/29 42/80/29 43/79/29
f 45/82/30 40/83/30 39/81/30
f 45/82/30 39/81/30 46/80/30
s off
g Cube.005_Cube.006_Material
v 4.77374 0.065417 2.70202
v -4.77374 0.065417 2.70202
v -4.77374 0.065417 3.93503
v 4.77374 0.065417 3.93503
v 4.77374 -0.065417 3.93503
v -4.77374 -0.065417 3.93503
v -4.77374 -0.065417 2.70202
v 4.77374 -0.065417 2.70202
vn 0 1 0
vn 0 0 1
vn -1 0 0
vn 0 -1 0
vn 1 0 0
vn 0 0 -1
vt 0.6 0
vt 0.7 0
vt 0.7 0.1
vt 0.6 0.1
vt 0.1 0.6
vt 0.1 0.7
vt 0 0.7
vt 0 0.6
vt 0.7 0.2
vt 0.6 0.2
vt 0.2 0.6
vt 0.2 0.7
vt 0.3 0.6
vt 0.3 0.7
vt 0.7 0.3
vt 0.6 0.3
usemtl Material
f 47/84/31 48/85/31 49/86/31
f 47/84/31 49/86/31 50/87/31
f 51/88/32 50/89/32 49/90/32
f 51/88/32 49/90/32 52/91/32
f 52/86/33 49/92/33 48/93/33
f 52/86/33 48/93/33 53/87/33
f 53/88/34 54/94/34 51/95/34
f 53/88/34 51/95/34 52/89/34
f 54/96/35 47/97/35 50/95/35
f 54/96/35 50/95/35 51/94/35
f 53/92/36 48/98/36 47/99/36
f 53/92/36 47/99/36 54/93/36
s off
g Cube.006_Cube.007_Material
v 4.77374 0.065417 -5.66293
v -4.77374 0.065417 -5.66293
v -4.77374 0.065417 -4.42992
v 4.77374 0.065417 -4.42992
v 4.77374 -0.065417 -4.42992
v -4.77374 -0.065417 -4.42992
v -4.77374 -0.065417 -5.66293
v 4.77374 -0.065417 -5.66293
vn 0 1 0
vn 0 0 1
vn -1 0 0
vn 0 -1 0
vn 1 0 0
vn 0 0 -1
vt 0.6 0.3
vt 0.7 0.3
vt 0.7 0.4
vt 0.6 0.4
vt 0.4 0.6
vt 0.4 0.7
vt 0.3 0.7
vt 0.3 0.6
vt 0.7 0.5
vt 0.6 0.5
vt 0.5 0.6
vt 0.5 0.7
vt 0.7 0.6
vt 0.6 0.6
vt 0.6 0.7
usemtl Material
f 55/100/37 56/101/37 57/102/37
f 55/100/37 57/102/37 58/103/37
f 59/104/38 58/105/38 57/106/38
f 59/104/38 57/106/38 60/107/38
f 60/102/39 57/108/39 56/109/39
f 60/102/39 56/109/39 61/103/39
f 61/104/40 62/110/40 59/111/40
f 61/104/40 59/111/40 60/105/40
f 62/108/41 55/112/41 58/113/41
f 62/108/41 58/113/41 59/109/41
f 61/113/42 56/114/42 55/111/42
f 61/113/42 55/111/42 62/110/42
s off
g Cube.007_Cube.008_Material
v 4.77374 -0.90711 0.005928
v -4.77374 -0.90711 0.005928
v -4.77374 -0.90711 0.880747
v 4.77374 -0.90711 0.880747
v 4.77374 -1.03794 0.880747
v -4.77374 -1.03794 0.880747
v -4.77374 -1.03794 0.005928
v 4.77374 -1.03794 0.005928
vn 0 1 0
vn 0 0 1
vn -1 0 0
vn 0 -1 0
vn 1 0 0
vn 0 0 -1
vt 0.6 0.6
vt 0.7 0.6
vt 0.7 0.7
vt 0.6 0.7
vt 0.8 0
vt 0.8 0.1
vt 0.7 0.1
vt 0.7 0
vt 0.1 0.7
vt 0.1 0.8
vt 0 0.8
vt 0 0.7
vt 0.8 0.2
vt 0.7 0.2
vt 0.2 0.7
vt 0.2 0.8
vt 0.8 0.3
vt 0.7 0.3
usemtl Material
f 63/115/43 64/116/43 65/117/43
f 63/115/43 65/117/43 66/118/43
f 67/119/44 66/120/44 65/121/44
f 67/119/44 65/121/44 68/122/44
f 68/123/45 65/124/45 64/125/45
f 68/123/45 64/125/45 69/126/45
f 69/121/46 70/120/46 67/127/46
f 69/121/46 67/127/46 68/128/46
f 70/129/47 63/130/47 66/124/47
f 70/129/47 66/124/47 67/123/47
f 69/127/48 64/131/48 63/132/48
f 69/127/48 63/132/48 70/128/48
s off
g Cube.008_Cube.009_Material
v 4.77374 -0.90711 -1.31282
v -4.77374 -0.90711 -1.31282
v -4.77374 -0.90711 -0.437998
v 4.77374 -0.90711 -0.437998
v 4.77374 -1.03794 -0.437998
v -4.77374 -1.03794 -0.437998
v -4.77374 -1.03794 -1.31282
v 4.77374 -1.03794 -1.31282
vn 0 1 0
vn 0 0 1
vn -1 0 0
vn 0 -1 0
vn 1 0 0
vn 0 0 -1
vt 0.2 0.7
vt 0.3 0.7
vt 0.3 0.8
vt 0.2 0.8
vt 0.4 0.7
vt 0.4 0.8
vt 0.8 0.3
vt 0.8 0.4
vt 0.7 0.4
vt 0.7 0.3
vt 0.8 0.5
vt 0.7 0.5
vt 0.5 0.7
vt 0.5 0.8
vt 0.6 0.7
vt 0.6 0.8
usemtl Material
f 71/133/49 72/134/49 73/135/49
f 71/133/49 73/135/49 74/136/49
f 75/137/50 74/138/50 73/135/50
f 75/137/50 73/135/50 76/134/50
f 76/139/51 73/140/51 72/141/51
f 76/139/51 72/141/51 77/142/51
f 77/141/52 78/140/52 75/143/52
f 77/141/52 75/143/52 76/144/52
f 78/145/53 71/146/53 74/138/53
f 78/145/53 74/138/53 75/137/53
f 77/147/54 72/148/54 71/146/54
f 77/147/54 71/146/54 78/145/54
s off
g Cube.009_Cube.010_Material
v 4.77374 -0.90711 -2.64635
v -4.77374 -0.90711 -2.64635
v -4.77374 -0.90711 -1.77153
v 4.77374 -0.90711 -1.77153
v 4.77374 -1.03794 -1.77153
v -4.77374 -1.03794 -1.77153
v -4.77374 -1.03794 -2.64635
v 4.77374 -1.03794 -2.64635
vn 0 1 0
vn 0 0 1
vn -1 0 0
vn 0 -1 0
vn 1 0 0
vn 0 0 -1
vt 0.7 0.5
vt 0.8 0.5
vt 0.8 0.6
vt 0.7 0.6
vt 0.7 0.7
vt 0.7 0.8
vt 0.6 0.8
vt 0.6 0.7
vt 0.8 0.7
vt 0.8 0.8
vt 0.9 0
vt 0.9 0.1
vt 0.8 0.1
vt 0.8 0
vt 0.1 0.8
vt 0.1 0.9
vt 0 0.9
vt 0 0.8
usemtl Material
f 79/149/55 80/150/55 81/151/55
f 79/149/55 81/151/55 82/152/55
f 83/153/56 82/154/56 81/155/56
f 83/153/56 81/155/56 84/156/56
f 84/151/57 81/157/57 80/153/57
f 84/151/57 80/153/57 85/152/57
f 85/153/58 86/157/58 83/158/58
f 85/153/58 83/158/58 84/154/58
f 86/159/59 79/160/59 82/161/59
f 86/159/59 82/161/59 83/162/59
f 85/163/60 80/164/60 79/165/60
f 85/163/60 79/165/60 86/166/60
s off
g Cube.010_Cube.011_Material
v 4.77374 -0.90711 2.70202
v -4.77374 -0.90711 2.70202
v -4.77374 -0.90711 3.93503
v 4.77374 -0.90711 3.93503
v 4.77374 -1.03794 3.93503
v -4.77374 -1.03794 3.93503
v -4.77374 -1.03794 2.70202
v 4.77374 -1.03794 2.70202
vn 0 1 0
vn 0 0 1
vn -1 0 0
vn 0 -1 0
vn 1 0 0
vn 0 0 -1
vt 0.8 0.1
vt 0.9 0.1
vt 0.9 0.2
vt 0.8 0.2
vt 0.2 0.8
vt 0.2 0.9
vt 0.1 0.9
vt 0.1 0.8
vt 0.9 0.3
vt 0.8 0.3
vt 0.3 0.8
vt 0.3 0.9
vt 0.9 0.4
vt 0.8 0.4
vt 0.4 0.8
vt 0.4 0.9
usemtl Material
f 87/167/61 88/168/61 89/169/61
f 87/167/61 89/169/61 90/170/61
f 91/171/62 90/172/62 89/173/62
f 91/171/62 89/173/62 92/174/62
f 92/169/63 89/175/63 88/176/63
f 92/169/63 88/176/63 93/170/63
f 93/171/64 94/177/64 91/178/64
f 93/171/64 91/178/64 92/172/64
f 94/175/65 87/179/65 90/180/65
f 94/175/65 90/180/65 91/176/65
f 93/181/66 88/182/66 87/178/66
f 93/181/66 87/178/66 94/177/66
s off
g Cube.011_Cube.012_Material
v 4.77374 -0.90711 -5.66293
v -4.77374 -0.90711 -5.66293
v -4.77374 -0.90711 -4.42992
v 4.77374 -0.90711 -4.42992
v 4.77374 -1.03794 -4.42992
v -4.77374 -1.03794 -4.42992
v -4.77374 -1.03794 -5.66293
v 4.77374 -1.03794 -5.66293
vn 0 1 0
vn 0 0 1
vn -1 0 0
vn 0 -1 0
vn 1 0 0
vn 0 0 -1
vt 0.4 0.8
vt 0.5 0.8
vt 0.5 0.9
vt 0.4 0.9
vt 0.9 0.4
vt 0.9 0.5
vt 0.8 0.5
vt 0.8 0.4
vt 0.9 0.6
vt 0.8 0.6
vt 0.6 0.8
vt 0.6 0.9
vt 0.9 0.7
vt 0.8 0.7
vt 0.7 0.8
vt 0.7 0.9
usemtl Material
f 95/183/67 96/184/67 97/185/67
f 95/183/67 97/185/67 98/186/67
f 99/187/68 98/188/68 97/189/68
f 99/187/68 97/189/68 100/190/68
f 100/188/69 97/191/69 96/192/69
f 100/188/69 96/192/69 101/189/69
f 101/184/70 102/193/70 99/194/70
f 101/184/70 99/194/70 100/185/70
f 102/191/71 95/195/71 98/196/71
f 102/191/71 98/196/71 99/192/71
f 101/197/72 96/198/72 95/194/72
f 101/197/72 95/194/72 102/193/72
s off
g Cube.012_Cube.013_Material
v 4.71357 -0.047201 -5.62755
v 4.71357 -0.047201 3.91993
v 4.71357 -0.922021 3.91993
v 4.71357 -0.922021 -5.62755
v 4.44539 -0.922021 -5.62755
v 4.44539 -0.922021 3.91993
v 4.44539 -0.047201 3.91993
v 4.44539 -0.047201 -5.62755
vn 1 0 -0
vn 0 -1 0
vn 0 0 1
vn -1 0 0
vn 0 0 -1
vn 0 1 0
vt 0.8 0.7
vt 0.9 0.7
vt 0.9 0.8
vt 0.8 0.8
vt 0.8 0.9
vt 0.7 0.9
vt 0.7 0.8
vt 0.9 0.9
vt 0.9 0
vt 1 0
vt 1 0.1
vt 0.9 0.1
vt 0.1 0.9
vt 0.1 1
vt 0 1
vt 0 0.9
vt 1 0.2
vt 0.9 0.2
usemtl Material
f 103/199/73 104/200/73 105/201/73
f 103/199/73 105/201/73 106/202/73
f 107/202/74 106/203/74 105/204/74
f 107/202/74 105/204/74 108/205/74
f 108/201/75 105/206/75 104/203/75
f 108/201/75 104/203/75 109/202/75
f 109/207/76 110/208/76 107/209/76
f 109/207/76 107/209/76 108/210/76
f 110/211/77 103/212/77 106/213/77
f 110/211/77 106/213/77 107/214/77
f 109/209/78 104/215/78 103/216/78
f 109/209/78 103/216/78 110/210/78
s off
g Cube.013_Cube.014_Material
v -4.48328 -0.047201 -5.62755
v -4.48328 -0.047201 3.91993
v -4.48328 -0.922021 3.91993
v -4.48328 -0.922021 -5.62755
v -4.75146 -0.922021 -5.62755
v -4.75146 -0.922021 3.91993
v -4.75146 -0.047201 3.91993
v -4.75146 -0.047201 -5.62755
vn 1 0 -0
vn 0 -1 0
vn 0 0 1
vn -1 0 0
vn 0 0 -1
vn 0 1 0
vt 0 0
vt 0.1 0
vt 0.1 0.1
vt 0 0.1
vt 0.1 0.2
vt 0 0.2
vt 0.2 0
vt 0.2 0.1
vt 0.2 0.2
vt 0.1 0.3
vt 0 0.3
vt 0.3 0
vt 0.3 0.1
usemtl Material
f 111/217/79 112/218/79 113/219/79
f 111/217/79 113/219/79 114/220/79
f 115/219/80 114/221/80 113/222/80
f 115/219/80 113/222/80 116/220/80
f 116/223/81 113/224/81 112/219/81
f 116/223/81 112/219/81 117/218/81
f 117/219/82 118/224/82 115/225/82
f 117/219/82 115/225/82 116/221/82
f 118/221/83 111/226/83 114/227/83
f 118/221/83 114/227/83 115/222/83
f 117/228/84 112/229/84 111/224/84
f 117/228/84 111/224/84 118/223/84
s off
g Cube.014_Cube.015_Material
v 0.131371 -0.047201 -5.62755
v 0.131371 -0.047201 3.91993
v 0.131371 -0.922021 3.91993
v 0.131371 -0.922021 -5.62755
v -0.136804 -0.922021 -5.62755
v -0.136804 -0.922021 3.91993
v -0.136804 -0.047201 3.91993
v -0.136804 -0.047201 -5.62755
vn 1 -0 -0
vn 0 -1 0
vn 0 0 1
vn -1 0 0
vn 0 0 -1
vn 0 1 0
vt 0.1 0.9
vt 0.2 0.9
vt 0.2 1
vt 0.1 1
vt 0.3 0.9
vt 0.3 1
vt 1 0.2
vt 1 0.3
vt 0.9 0.3
vt 0.9 0.2
vt 0.4 0.9
vt 0.4 1
vt 1 0.4
vt 0.9 0.4
vt 1 0.5
vt 0.9 0.5
usemtl Material
f 119/230/85 120/231/85 121/232/85
f 119/230/85 121/232/85 122/233/85
f 123/234/86 122/235/86 121/232/86
f 123/234/86 121/232/86 124/231/86
f 124/236/87 121/237/87 120/238/87
f 124/236/87 120/238/87 125/239/87
f 125/234/88 126/240/88 123/241/88
f 125/234/88 123/241/88 124/235/88
f 126/237/89 119/242/89 122/243/89
f 126/237/89 122/243/89 123/238/89
f 125/242/90 120/244/90 119/245/90
f 125/242/90 119/245/90 126/243/90
s off
