# Blender v3.2.1 OBJ File: 'Ladder.blend'
# www.blender.org
mtllib Ladder.mtl
o Cylinder
v 0.000000 -7.916607 -0.155877
v 0.000000 7.916607 -0.155877
v 0.044059 -7.916607 -0.152882
v 0.044059 7.916607 -0.152882
v 0.086424 -7.916607 -0.144012
v 0.086424 7.916607 -0.144012
v 0.125468 -7.916607 -0.129607
v 0.125468 7.916607 -0.129607
v 0.159691 -7.916607 -0.110222
v 0.159691 7.916607 -0.110222
v 0.187777 -7.916607 -0.086601
v 0.187777 7.916607 -0.086601
v 0.208646 -7.916607 -0.059652
v 0.208646 7.916607 -0.059652
v 0.221498 -7.916607 -0.030410
v 0.221498 7.916607 -0.030410
v 0.225837 -7.916607 0.000000
v 0.225837 7.916607 0.000000
v 0.221498 -7.916607 0.030410
v 0.221498 7.916607 0.030410
v 0.208646 -7.916607 0.059652
v 0.208646 7.916607 0.059652
v 0.187777 -7.916607 0.086601
v 0.187777 7.916607 0.086601
v 0.159691 -7.916607 0.110222
v 0.159691 7.916607 0.110222
v 0.125468 -7.916607 0.129607
v 0.125468 7.916607 0.129607
v 0.086424 -7.916607 0.144012
v 0.086424 7.916607 0.144012
v 0.044059 -7.916607 0.152882
v 0.044059 7.916607 0.152882
v -0.000000 -7.916607 0.155877
v -0.000000 7.916607 0.155877
v -0.044059 -7.916607 0.152882
v -0.044059 7.916607 0.152882
v -0.086424 -7.916607 0.144012
v -0.086424 7.916607 0.144012
v -0.125468 -7.916607 0.129607
v -0.125468 7.916607 0.129607
v -0.159691 -7.916607 0.110222
v -0.159691 7.916607 0.110222
v -0.187777 -7.916607 0.086601
v -0.187777 7.916607 0.086601
v -0.208646 -7.916607 0.059652
v -0.208646 7.916607 0.059652
v -0.221498 -7.916607 0.030410
v -0.221498 7.916607 0.030410
v -0.225837 -7.916607 -0.000000
v -0.225837 7.916607 -0.000000
v -0.221498 -7.916607 -0.030410
v -0.221498 7.916607 -0.030410
v -0.208646 -7.916607 -0.059652
v -0.208646 7.916607 -0.059652
v -0.187777 -7.916607 -0.086601
v -0.187777 7.916607 -0.086601
v -0.159691 -7.916607 -0.110222
v -0.159691 7.916607 -0.110222
v -0.125468 -7.916607 -0.129607
v -0.125468 7.916607 -0.129607
v -0.086424 -7.916607 -0.144012
v -0.086424 7.916607 -0.144012
v -0.044059 -7.916607 -0.152882
v -0.044059 7.916607 -0.152882
vt 0.493462 0.746726
vt 0.493462 0.988234
vt 0.478368 0.988234
vt 0.478368 0.746726
vt 0.463273 0.988234
vt 0.463273 0.746726
vt 0.448179 0.988234
vt 0.448179 0.746726
vt 0.433085 0.988234
vt 0.433085 0.746726
vt 0.417991 0.988234
vt 0.417991 0.746726
vt 0.402896 0.988234
vt 0.402896 0.746726
vt 0.387802 0.988234
vt 0.387802 0.746726
vt 0.372708 0.988234
vt 0.372708 0.746726
vt 0.357613 0.988234
vt 0.357613 0.746726
vt 0.342519 0.988234
vt 0.342519 0.746726
vt 0.327425 0.988234
vt 0.327425 0.746726
vt 0.312330 0.988234
vt 0.312330 0.746726
vt 0.297236 0.988234
vt 0.297236 0.746726
vt 0.282142 0.988234
vt 0.282142 0.746726
vt 0.267047 0.988234
vt 0.267047 0.746726
vt 0.251953 0.988234
vt 0.251953 0.746726
vt 0.236859 0.988234
vt 0.236859 0.746726
vt 0.221765 0.988234
vt 0.221765 0.746726
vt 0.206670 0.988234
vt 0.206670 0.746726
vt 0.191576 0.988234
vt 0.191576 0.746726
vt 0.176482 0.988234
vt 0.176482 0.746726
vt 0.161387 0.988234
vt 0.161387 0.746726
vt 0.146293 0.988234
vt 0.146293 0.746726
vt 0.131199 0.988234
vt 0.131199 0.746726
vt 0.116104 0.988234
vt 0.116104 0.746726
vt 0.101010 0.988234
vt 0.101010 0.746726
vt 0.085916 0.988234
vt 0.085916 0.746726
vt 0.070822 0.988234
vt 0.070822 0.746726
vt 0.055727 0.988234
vt 0.055727 0.746726
vt 0.040633 0.988234
vt 0.040633 0.746726
vt 0.153814 0.739668
vt 0.131199 0.741895
vt 0.108583 0.739668
vt 0.086836 0.733071
vt 0.066795 0.722359
vt 0.049228 0.707942
vt 0.034811 0.690375
vt 0.024099 0.670333
vt 0.017502 0.648587
vt 0.015274 0.625971
vt 0.017502 0.603355
vt 0.024099 0.581609
vt 0.034811 0.561567
vt 0.049228 0.544000
vt 0.066795 0.529584
vt 0.086836 0.518871
vt 0.108583 0.512274
vt 0.131199 0.510047
vt 0.153814 0.512274
vt 0.175561 0.518871
vt 0.195603 0.529584
vt 0.213170 0.544000
vt 0.227586 0.561567
vt 0.238299 0.581609
vt 0.244896 0.603355
vt 0.247123 0.625971
vt 0.244896 0.648587
vt 0.238299 0.670333
vt 0.227586 0.690375
vt 0.213170 0.707942
vt 0.195603 0.722359
vt 0.175561 0.733071
vt 0.025539 0.988234
vt 0.025539 0.746726
vt 0.010444 0.988234
vt 0.010444 0.746726
vt 0.372708 0.741895
vt 0.395323 0.739668
vt 0.417070 0.733071
vt 0.437112 0.722359
vt 0.454678 0.707942
vt 0.469095 0.690375
vt 0.479808 0.670333
vt 0.486404 0.648587
vt 0.488632 0.625971
vt 0.486404 0.603355
vt 0.479808 0.581609
vt 0.469095 0.561567
vt 0.454678 0.544000
vt 0.437112 0.529584
vt 0.417070 0.518871
vt 0.395323 0.512274
vt 0.372708 0.510047
vt 0.350092 0.512274
vt 0.328345 0.518871
vt 0.308304 0.529584
vt 0.290737 0.544000
vt 0.276320 0.561567
vt 0.265608 0.581609
vt 0.259011 0.603355
vt 0.256783 0.625971
vt 0.259011 0.648587
vt 0.265608 0.670333
vt 0.276320 0.690375
vt 0.290737 0.707942
vt 0.308304 0.722359
vt 0.328345 0.733071
vt 0.350092 0.739668
vn 0.0678 0.0000 -0.9977
vn 0.2049 0.0000 -0.9788
vn 0.3461 0.0000 -0.9382
vn 0.4929 0.0000 -0.8701
vn 0.6437 0.0000 -0.7653
vn 0.7906 0.0000 -0.6123
vn 0.9155 0.0000 -0.4023
vn 0.9900 0.0000 -0.1413
vn 0.9900 0.0000 0.1413
vn 0.9155 0.0000 0.4023
vn 0.7906 0.0000 0.6123
vn 0.6437 0.0000 0.7653
vn 0.4929 0.0000 0.8701
vn 0.3461 0.0000 0.9382
vn 0.2049 0.0000 0.9788
vn 0.0678 0.0000 0.9977
vn -0.0678 0.0000 0.9977
vn -0.2049 0.0000 0.9788
vn -0.3461 0.0000 0.9382
vn -0.4929 0.0000 0.8701
vn -0.6437 0.0000 0.7653
vn -0.7906 0.0000 0.6123
vn -0.9155 0.0000 0.4023
vn -0.9900 0.0000 0.1413
vn -0.9900 0.0000 -0.1413
vn -0.9155 0.0000 -0.4023
vn -0.7906 0.0000 -0.6123
vn -0.6437 0.0000 -0.7653
vn -0.4929 0.0000 -0.8701
vn -0.3461 0.0000 -0.9382
vn 0.0000 1.0000 0.0000
vn -0.2049 0.0000 -0.9788
vn -0.0678 0.0000 -0.9977
vn 0.0000 -1.0000 -0.0000
usemtl None
s off
f 1/1/1 2/2/1 4/3/1 3/4/1
f 3/4/2 4/3/2 6/5/2 5/6/2
f 5/6/3 6/5/3 8/7/3 7/8/3
f 7/8/4 8/7/4 10/9/4 9/10/4
f 9/10/5 10/9/5 12/11/5 11/12/5
f 11/12/6 12/11/6 14/13/6 13/14/6
f 13/14/7 14/13/7 16/15/7 15/16/7
f 15/16/8 16/15/8 18/17/8 17/18/8
f 17/18/9 18/17/9 20/19/9 19/20/9
f 19/20/10 20/19/10 22/21/10 21/22/10
f 21/22/11 22/21/11 24/23/11 23/24/11
f 23/24/12 24/23/12 26/25/12 25/26/12
f 25/26/13 26/25/13 28/27/13 27/28/13
f 27/28/14 28/27/14 30/29/14 29/30/14
f 29/30/15 30/29/15 32/31/15 31/32/15
f 31/32/16 32/31/16 34/33/16 33/34/16
f 33/34/17 34/33/17 36/35/17 35/36/17
f 35/36/18 36/35/18 38/37/18 37/38/18
f 37/38/19 38/37/19 40/39/19 39/40/19
f 39/40/20 40/39/20 42/41/20 41/42/20
f 41/42/21 42/41/21 44/43/21 43/44/21
f 43/44/22 44/43/22 46/45/22 45/46/22
f 45/46/23 46/45/23 48/47/23 47/48/23
f 47/48/24 48/47/24 50/49/24 49/50/24
f 49/50/25 50/49/25 52/51/25 51/52/25
f 51/52/26 52/51/26 54/53/26 53/54/26
f 53/54/27 54/53/27 56/55/27 55/56/27
f 55/56/28 56/55/28 58/57/28 57/58/28
f 57/58/29 58/57/29 60/59/29 59/60/29
f 59/60/30 60/59/30 62/61/30 61/62/30
f 4/63/31 2/64/31 64/65/31 62/66/31 60/67/31 58/68/31 56/69/31 54/70/31 52/71/31 50/72/31 48/73/31 46/74/31 44/75/31 42/76/31 40/77/31 38/78/31 36/79/31 34/80/31 32/81/31 30/82/31 28/83/31 26/84/31 24/85/31 22/86/31 20/87/31 18/88/31 16/89/31 14/90/31 12/91/31 10/92/31 8/93/31 6/94/31
f 61/62/32 62/61/32 64/95/32 63/96/32
f 63/96/33 64/95/33 2/97/33 1/98/33
f 1/99/34 3/100/34 5/101/34 7/102/34 9/103/34 11/104/34 13/105/34 15/106/34 17/107/34 19/108/34 21/109/34 23/110/34 25/111/34 27/112/34 29/113/34 31/114/34 33/115/34 35/116/34 37/117/34 39/118/34 41/119/34 43/120/34 45/121/34 47/122/34 49/123/34 51/124/34 53/125/34 55/126/34 57/127/34 59/128/34 61/129/34 63/130/34
o Cylinder.001
v 0.000000 -7.916607 -3.024930
v 0.000000 7.916607 -3.024930
v 0.044059 -7.916607 -3.021935
v 0.044059 7.916607 -3.021935
v 0.086424 -7.916607 -3.013065
v 0.086424 7.916607 -3.013065
v 0.125468 -7.916607 -2.998660
v 0.125468 7.916607 -2.998660
v 0.159691 -7.916607 -2.979275
v 0.159691 7.916607 -2.979275
v 0.187777 -7.916607 -2.955654
v 0.187777 7.916607 -2.955654
v 0.208646 -7.916607 -2.928705
v 0.208646 7.916607 -2.928705
v 0.221498 -7.916607 -2.899463
v 0.221498 7.916607 -2.899463
v 0.225837 -7.916607 -2.869053
v 0.225837 7.916607 -2.869053
v 0.221498 -7.916607 -2.838643
v 0.221498 7.916607 -2.838643
v 0.208646 -7.916607 -2.809402
v 0.208646 7.916607 -2.809402
v 0.187777 -7.916607 -2.782452
v 0.187777 7.916607 -2.782452
v 0.159691 -7.916607 -2.758831
v 0.159691 7.916607 -2.758831
v 0.125468 -7.916607 -2.739446
v 0.125468 7.916607 -2.739446
v 0.086424 -7.916607 -2.725041
v 0.086424 7.916607 -2.725041
v 0.044059 -7.916607 -2.716171
v 0.044059 7.916607 -2.716171
v -0.000000 -7.916607 -2.713176
v -0.000000 7.916607 -2.713176
v -0.044059 -7.916607 -2.716171
v -0.044059 7.916607 -2.716171
v -0.086424 -7.916607 -2.725041
v -0.086424 7.916607 -2.725041
v -0.125468 -7.916607 -2.739446
v -0.125468 7.916607 -2.739446
v -0.159691 -7.916607 -2.758831
v -0.159691 7.916607 -2.758831
v -0.187777 -7.916607 -2.782452
v -0.187777 7.916607 -2.782452
v -0.208646 -7.916607 -2.809402
v -0.208646 7.916607 -2.809402
v -0.221498 -7.916607 -2.838643
v -0.221498 7.916607 -2.838643
v -0.225837 -7.916607 -2.869053
v -0.225837 7.916607 -2.869053
v -0.221498 -7.916607 -2.899463
v -0.221498 7.916607 -2.899463
v -0.208646 -7.916607 -2.928705
v -0.208646 7.916607 -2.928705
v -0.187777 -7.916607 -2.955654
v -0.187777 7.916607 -2.955654
v -0.159691 -7.916607 -2.979275
v -0.159691 7.916607 -2.979275
v -0.125468 -7.916607 -2.998660
v -0.125468 7.916607 -2.998660
v -0.086424 -7.916607 -3.013065
v -0.086424 7.916607 -3.013065
v -0.044059 -7.916607 -3.021935
v -0.044059 7.916607 -3.021935
vt 0.000000 0.000000
vt 0.000000 0.000000
vt 0.000000 0.000000
vt 0.000000 0.000000
vt 0.000000 0.000000
vt 0.000000 0.000000
vt 0.000000 0.000000
vt 0.000000 0.000000
vt 0.000000 0.000000
vt 0.000000 0.000000
vt 0.000000 0.000000
vt 0.000000 0.000000
vt 0.000000 0.000000
vt 0.000000 0.000000
vt 0.000000 0.000000
vt 0.000000 0.000000
vt 0.000000 0.000000
vt 0.000000 0.000000
vt 0.000000 0.000000
vt 0.000000 0.000000
vt 0.000000 0.000000
vt 0.000000 0.000000
vt 0.000000 0.000000
vt 0.000000 0.000000
vt 0.000000 0.000000
vt 0.000000 0.000000
vt 0.000000 0.000000
vt 0.000000 0.000000
vt 0.000000 0.000000
vt 0.000000 0.000000
vt 0.000000 0.000000
vt 0.000000 0.000000
vt 0.000000 0.000000
vt 0.000000 0.000000
vt 0.000000 0.000000
vt 0.000000 0.000000
vt 0.000000 0.000000
vt 0.000000 0.000000
vt 0.000000 0.000000
vt 0.000000 0.000000
vt 0.000000 0.000000
vt 0.000000 0.000000
vt 0.000000 0.000000
vt 0.000000 0.000000
vt 0.000000 0.000000
vt 0.000000 0.000000
vt 0.000000 0.000000
vt 0.000000 0.000000
vt 0.000000 0.000000
vt 0.000000 0.000000
vt 0.000000 0.000000
vt 0.000000 0.000000
vt 0.000000 0.000000
vt 0.000000 0.000000
vt 0.000000 0.000000
vt 0.000000 0.000000
vt 0.000000 0.000000
vt 0.000000 0.000000
vt 0.000000 0.000000
vt 0.000000 0.000000
vt 0.000000 0.000000
vt 0.000000 0.000000
vt 0.000000 0.000000
vt 0.000000 0.000000
vn 0.0678 0.0000 -0.9977
vn 0.2049 0.0000 -0.9788
vn 0.3461 0.0000 -0.9382
vn 0.4929 0.0000 -0.8701
vn 0.6437 0.0000 -0.7653
vn 0.7906 0.0000 -0.6123
vn 0.9155 0.0000 -0.4023
vn 0.9900 0.0000 -0.1413
vn 0.9900 0.0000 0.1413
vn 0.9155 0.0000 0.4023
vn 0.7906 0.0000 0.6123
vn 0.6437 0.0000 0.7653
vn 0.4929 0.0000 0.8701
vn 0.3461 0.0000 0.9382
vn 0.2049 0.0000 0.9788
vn 0.0678 0.0000 0.9977
vn -0.0678 0.0000 0.9977
vn -0.2049 0.0000 0.9788
vn -0.3461 0.0000 0.9382
vn -0.4929 0.0000 0.8701
vn -0.6437 0.0000 0.7653
vn -0.7906 0.0000 0.6123
vn -0.9155 0.0000 0.4023
vn -0.9900 0.0000 0.1413
vn -0.9900 0.0000 -0.1413
vn -0.9155 0.0000 -0.4023
vn -0.7906 0.0000 -0.6123
vn -0.6437 0.0000 -0.7653
vn -0.4929 0.0000 -0.8701
vn -0.3461 0.0000 -0.9382
vn 0.0000 1.0000 0.0000
vn -0.2049 0.0000 -0.9788
vn -0.0678 0.0000 -0.9977
vn 0.0000 -1.0000 -0.0000
usemtl None
s off
f 65/131/35 66/132/35 68/133/35 67/134/35
f 67/134/36 68/133/36 70/135/36 69/136/36
f 69/136/37 70/135/37 72/137/37 71/138/37
f 71/138/38 72/137/38 74/139/38 73/140/38
f 73/140/39 74/139/39 76/141/39 75/142/39
f 75/142/40 76/141/40 78/143/40 77/144/40
f 77/144/41 78/143/41 80/145/41 79/146/41
f 79/146/42 80/145/42 82/147/42 81/148/42
f 81/148/43 82/147/43 84/149/43 83/150/43
f 83/150/44 84/149/44 86/151/44 85/152/44
f 85/152/45 86/151/45 88/153/45 87/154/45
f 87/154/46 88/153/46 90/155/46 89/156/46
f 89/156/47 90/155/47 92/157/47 91/158/47
f 91/158/48 92/157/48 94/159/48 93/160/48
f 93/160/49 94/159/49 96/161/49 95/162/49
f 95/162/50 96/161/50 98/163/50 97/164/50
f 97/164/51 98/163/51 100/165/51 99/166/51
f 99/166/52 100/165/52 102/167/52 101/168/52
f 101/168/53 102/167/53 104/169/53 103/170/53
f 103/170/54 104/169/54 106/171/54 105/172/54
f 105/172/55 106/171/55 108/173/55 107/174/55
f 107/174/56 108/173/56 110/175/56 109/176/56
f 109/176/57 110/175/57 112/177/57 111/178/57
f 111/178/58 112/177/58 114/179/58 113/180/58
f 113/180/59 114/179/59 116/181/59 115/182/59
f 115/182/60 116/181/60 118/183/60 117/184/60
f 117/184/61 118/183/61 120/185/61 119/186/61
f 119/186/62 120/185/62 122/187/62 121/188/62
f 121/188/63 122/187/63 124/189/63 123/190/63
f 123/190/64 124/189/64 126/191/64 125/192/64
f 68/133/65 66/132/65 128/193/65 126/191/65 124/189/65 122/187/65 120/185/65 118/183/65 116/181/65 114/179/65 112/177/65 110/175/65 108/173/65 106/171/65 104/169/65 102/167/65 100/165/65 98/163/65 96/161/65 94/159/65 92/157/65 90/155/65 88/153/65 86/151/65 84/149/65 82/147/65 80/145/65 78/143/65 76/141/65 74/139/65 72/137/65 70/135/65
f 125/192/66 126/191/66 128/193/66 127/194/66
f 127/194/67 128/193/67 66/132/67 65/131/67
f 65/131/68 67/134/68 69/136/68 71/138/68 73/140/68 75/142/68 77/144/68 79/146/68 81/148/68 83/150/68 85/152/68 87/154/68 89/156/68 91/158/68 93/160/68 95/162/68 97/164/68 99/166/68 101/168/68 103/170/68 105/172/68 107/174/68 109/176/68 111/178/68 113/180/68 115/182/68 117/184/68 119/186/68 121/188/68 123/190/68 125/192/68 127/194/68
o Cube_Cube.001
v -0.498754 -0.099635 -0.026347
v -0.498754 0.099635 -0.026347
v -0.498754 -0.099635 -2.846982
v -0.498754 0.099635 -2.846982
v 0.519510 -0.099635 -0.026347
v 0.519510 0.099635 -0.026347
v 0.519510 -0.099635 -2.846982
v 0.519510 0.099635 -2.846982
vt 0.642312 0.014272
vt 0.814620 0.014272
vt 0.814620 0.186581
vt 0.642312 0.186581
vt 0.814620 0.358889
vt 0.642312 0.358889
vt 0.814620 0.531197
vt 0.642312 0.531197
vt 0.814620 0.703505
vt 0.642312 0.703505
vt 0.470003 0.358889
vt 0.470003 0.531197
vt 0.986928 0.358889
vt 0.986928 0.531197
vn -1.0000 0.0000 0.0000
vn 0.0000 0.0000 -1.0000
vn 1.0000 0.0000 0.0000
vn 0.0000 0.0000 1.0000
vn 0.0000 -1.0000 0.0000
vn 0.0000 1.0000 0.0000
usemtl None
s off
f 129/195/69 130/196/69 132/197/69 131/198/69
f 131/198/70 132/197/70 136/199/70 135/200/70
f 135/200/71 136/199/71 134/201/71 133/202/71
f 133/202/72 134/201/72 130/203/72 129/204/72
f 131/205/73 135/200/73 133/202/73 129/206/73
f 136/199/74 132/207/74 130/208/74 134/201/74
o Cube.001_Cube.002
v -0.498754 2.071599 -0.026347
v -0.498754 2.270869 -0.026347
v -0.498754 2.071599 -2.846982
v -0.498754 2.270869 -2.846982
v 0.519510 2.071599 -0.026347
v 0.519510 2.270869 -0.026347
v 0.519510 2.071599 -2.846982
v 0.519510 2.270869 -2.846982
vt 0.642312 0.014272
vt 0.814620 0.014272
vt 0.814620 0.186581
vt 0.642312 0.186581
vt 0.814620 0.358889
vt 0.642312 0.358889
vt 0.814620 0.531197
vt 0.642312 0.531197
vt 0.814620 0.703505
vt 0.642312 0.703505
vt 0.470003 0.358889
vt 0.470003 0.531197
vt 0.986928 0.358889
vt 0.986928 0.531197
vn -1.0000 0.0000 0.0000
vn 0.0000 0.0000 -1.0000
vn 1.0000 0.0000 0.0000
vn 0.0000 0.0000 1.0000
vn 0.0000 -1.0000 0.0000
vn 0.0000 1.0000 0.0000
usemtl None
s off
f 137/209/75 138/210/75 140/211/75 139/212/75
f 139/212/76 140/211/76 144/213/76 143/214/76
f 143/214/77 144/213/77 142/215/77 141/216/77
f 141/216/78 142/215/78 138/217/78 137/218/78
f 139/219/79 143/214/79 141/216/79 137/220/79
f 144/213/80 140/221/80 138/222/80 142/215/80
o Cube.002_Cube.003
v -0.498754 4.136081 -0.026347
v -0.498754 4.335351 -0.026347
v -0.498754 4.136081 -2.846982
v -0.498754 4.335351 -2.846982
v 0.519510 4.136081 -0.026347
v 0.519510 4.335351 -0.026347
v 0.519510 4.136081 -2.846982
v 0.519510 4.335351 -2.846982
vt 0.642312 0.014272
vt 0.814620 0.014272
vt 0.814620 0.186581
vt 0.642312 0.186581
vt 0.814620 0.358889
vt 0.642312 0.358889
vt 0.814620 0.531197
vt 0.642312 0.531197
vt 0.814620 0.703505
vt 0.642312 0.703505
vt 0.470003 0.358889
vt 0.470003 0.531197
vt 0.986928 0.358889
vt 0.986928 0.531197
vn -1.0000 0.0000 0.0000
vn 0.0000 0.0000 -1.0000
vn 1.0000 0.0000 0.0000
vn 0.0000 0.0000 1.0000
vn 0.0000 -1.0000 0.0000
vn 0.0000 1.0000 0.0000
usemtl None
s off
f 145/223/81 146/224/81 148/225/81 147/226/81
f 147/226/82 148/225/82 152/227/82 151/228/82
f 151/228/83 152/227/83 150/229/83 149/230/83
f 149/230/84 150/229/84 146/231/84 145/232/84
f 147/233/85 151/228/85 149/230/85 145/234/85
f 152/227/86 148/235/86 146/236/86 150/229/86
o Cube.003_Cube.004
v -0.498754 6.086524 -0.026347
v -0.498754 6.285793 -0.026347
v -0.498754 6.086524 -2.846982
v -0.498754 6.285793 -2.846982
v 0.519510 6.086524 -0.026347
v 0.519510 6.285793 -0.026347
v 0.519510 6.086524 -2.846982
v 0.519510 6.285793 -2.846982
vt 0.642312 0.014272
vt 0.814620 0.014272
vt 0.814620 0.186581
vt 0.642312 0.186581
vt 0.814620 0.358889
vt 0.642312 0.358889
vt 0.814620 0.531197
vt 0.642312 0.531197
vt 0.814620 0.703505
vt 0.642312 0.703505
vt 0.470003 0.358889
vt 0.470003 0.531197
vt 0.986928 0.358889
vt 0.986928 0.531197
vn -1.0000 0.0000 0.0000
vn 0.0000 0.0000 -1.0000
vn 1.0000 0.0000 0.0000
vn 0.0000 0.0000 1.0000
vn 0.0000 -1.0000 0.0000
vn 0.0000 1.0000 0.0000
usemtl None
s off
f 153/237/87 154/238/87 156/239/87 155/240/87
f 155/240/88 156/239/88 160/241/88 159/242/88
f 159/242/89 160/241/89 158/243/89 157/244/89
f 157/244/90 158/243/90 154/245/90 153/246/90
f 155/247/91 159/242/91 157/244/91 153/248/91
f 160/241/92 156/249/92 154/250/92 158/243/92
o Cube.004_Cube.005
v -0.498754 -2.262894 -0.026347
v -0.498754 -2.063624 -0.026347
v -0.498754 -2.262894 -2.846982
v -0.498754 -2.063624 -2.846982
v 0.519510 -2.262894 -0.026347
v 0.519510 -2.063624 -0.026347
v 0.519510 -2.262894 -2.846982
v 0.519510 -2.063624 -2.846982
vt 0.642312 0.014272
vt 0.814620 0.014272
vt 0.814620 0.186581
vt 0.642312 0.186581
vt 0.814620 0.358889
vt 0.642312 0.358889
vt 0.814620 0.531197
vt 0.642312 0.531197
vt 0.814620 0.703505
vt 0.642312 0.703505
vt 0.470003 0.358889
vt 0.470003 0.531197
vt 0.986928 0.358889
vt 0.986928 0.531197
vn -1.0000 0.0000 0.0000
vn 0.0000 0.0000 -1.0000
vn 1.0000 0.0000 0.0000
vn 0.0000 0.0000 1.0000
vn 0.0000 -1.0000 0.0000
vn 0.0000 1.0000 0.0000
usemtl None
s off
f 161/251/93 162/252/93 164/253/93 163/254/93
f 163/254/94 164/253/94 168/255/94 167/256/94
f 167/256/95 168/255/95 166/257/95 165/258/95
f 165/258/96 166/257/96 162/259/96 161/260/96
f 163/261/97 167/256/97 165/258/97 161/262/97
f 168/255/98 164/263/98 162/264/98 166/257/98
o Cube.005_Cube.006
v -0.498754 -4.456209 -0.026347
v -0.498754 -4.256939 -0.026347
v -0.498754 -4.456209 -2.846982
v -0.498754 -4.256939 -2.846982
v 0.519510 -4.456209 -0.026347
v 0.519510 -4.256939 -0.026347
v 0.519510 -4.456209 -2.846982
v 0.519510 -4.256939 -2.846982
vt 0.642312 0.014272
vt 0.814620 0.014272
vt 0.814620 0.186581
vt 0.642312 0.186581
vt 0.814620 0.358889
vt 0.642312 0.358889
vt 0.814620 0.531197
vt 0.642312 0.531197
vt 0.814620 0.703505
vt 0.642312 0.703505
vt 0.470003 0.358889
vt 0.470003 0.531197
vt 0.986928 0.358889
vt 0.986928 0.531197
vn -1.0000 0.0000 0.0000
vn 0.0000 0.0000 -1.0000
vn 1.0000 0.0000 0.0000
vn 0.0000 0.0000 1.0000
vn 0.0000 -1.0000 0.0000
vn 0.0000 1.0000 0.0000
usemtl None
s off
f 169/265/99 170/266/99 172/267/99 171/268/99
f 171/268/100 172/267/100 176/269/100 175/270/100
f 175/270/101 176/269/101 174/271/101 173/272/101
f 173/272/102 174/271/102 170/273/102 169/274/102
f 171/275/103 175/270/103 173/272/103 169/276/103
f 176/269/104 172/277/104 170/278/104 174/271/104
o Cube.006_Cube.007
v -0.498754 -6.599849 -0.026347
v -0.498754 -6.400579 -0.026347
v -0.498754 -6.599849 -2.846982
v -0.498754 -6.400579 -2.846982
v 0.519510 -6.599849 -0.026347
v 0.519510 -6.400579 -0.026347
v 0.519510 -6.599849 -2.846982
v 0.519510 -6.400579 -2.846982
vt 0.000000 0.000000
vt 1.000000 0.000000
vt 1.000000 1.000000
vt 0.000000 1.000000
vt 0.000000 0.000000
vt 1.000000 0.000000
vt 1.000000 1.000000
vt 0.000000 1.000000
vt 0.000000 0.000000
vt 1.000000 0.000000
vt 1.000000 1.000000
vt 0.000000 1.000000
vt 0.000000 0.000000
vt 1.000000 0.000000
vt 1.000000 1.000000
vt 0.000000 1.000000
vt 1.000000 0.000000
vt 1.000000 1.000000
vt 0.000000 0.000000
vt 0.000000 1.000000
vn -1.0000 0.0000 0.0000
vn 0.0000 0.0000 -1.0000
vn 1.0000 0.0000 0.0000
vn 0.0000 0.0000 1.0000
vn 0.0000 -1.0000 0.0000
vn 0.0000 1.0000 0.0000
usemtl None
s off
f 177/279/105 178/280/105 180/281/105 179/282/105
f 179/283/106 180/284/106 184/285/106 183/286/106
f 183/287/107 184/288/107 182/289/107 181/290/107
f 181/291/108 182/292/108 178/293/108 177/294/108
f 179/283/109 183/295/109 181/296/109 177/294/109
f 184/297/110 180/284/110 178/293/110 182/298/110
